name rise32.9588peak41.5061fall63.4684.mot
datacolumns 19
datarows 29
range 8.57996500000000 8.62663500000000
endheader
time	ground_force1_vx	ground_force1_vy	ground_force1_vz	ground_force1_px	ground_force1_py	ground_force1_pz	ground_force2_vx	ground_force2_vy	ground_force2_vz	ground_force2_px	ground_force2_py	ground_force2_pz	ground_torque1_x	ground_torque1_y	ground_torque1_z	ground_torque2_x	ground_torque2_y	ground_torque2_z	
8.57996500000000	-46.82699000000000	793.04428199999995	45.61160800000000	0.08739900000000	0.00000000000000	0.08284600000000	-3.50281500000000	10.86019100000000	3.45444000000000	0.00000000000000	0.00000000000000	0.00000000000000	0.00000000000000	14.78157700000000	0.00000000000000	0.00000000000000	0.95444500000000	0.00000000000000	
8.58163900000000	-46.91084400000000	790.16592200000002	45.30049200000000	0.08682400000000	0.00000000000000	0.08281000000000	-4.62275600000000	15.59138700000000	4.67615800000000	0.00000000000000	0.00000000000000	0.00000000000000	0.00000000000000	14.69486000000000	0.00000000000000	0.00000000000000	1.30606800000000	0.00000000000000	
8.58330400000000	-47.00064300000000	787.18740500000001	44.96730200000000	0.08626500000000	0.00000000000000	0.08276800000000	-5.78768600000000	20.93115700000000	5.98492500000000	0.00000000000000	0.00000000000000	0.00000000000000	0.00000000000000	14.60828000000000	0.00000000000000	0.00000000000000	1.68688900000000	0.00000000000000	
8.58496900000000	-47.09715000000000	784.10932100000002	44.61218900000000	0.08572400000000	0.00000000000000	0.08271900000000	-6.95226200000000	26.78580100000000	7.33984000000000	0.26656200000000	0.00000000000000	-0.06855000000000	0.00000000000000	14.52199100000000	0.00000000000000	0.00000000000000	3.56602000000000	0.00000000000000	
8.58663100000000	-47.20109700000000	780.93219099999999	44.23534500000000	0.08520000000000	0.00000000000000	0.08266300000000	-8.06920300000000	33.04416400000000	8.69690200000000	0.27361600000000	0.00000000000000	-0.06924400000000	0.00000000000000	14.43613500000000	0.00000000000000	0.00000000000000	4.31267500000000	0.00000000000000	
8.58830300000000	-47.31318400000000	777.65647100000001	43.83700400000000	0.08469500000000	0.00000000000000	0.08260100000000	-9.09282200000000	39.58733800000000	10.01238500000000	0.28007800000000	0.00000000000000	-0.06986400000000	0.00000000000000	14.35084700000000	0.00000000000000	0.00000000000000	5.06116900000000	0.00000000000000	
8.58996500000000	-47.43407100000000	774.28254100000004	43.41744600000000	0.08420900000000	0.00000000000000	0.08253100000000	-9.98233400000000	46.29866100000000	11.24608400000000	0.28603000000000	0.00000000000000	-0.07042200000000	0.00000000000000	14.26625100000000	0.00000000000000	0.00000000000000	5.78985700000000	0.00000000000000	
8.59163500000000	-47.56438000000000	770.81069900000000	42.97699100000000	0.08374200000000	0.00000000000000	0.08245500000000	-10.70451900000000	53.07267400000000	12.36402000000000	0.29153900000000	0.00000000000000	-0.07092900000000	0.00000000000000	14.18245800000000	0.00000000000000	0.00000000000000	6.47943400000000	0.00000000000000	
8.59329700000000	-47.70468500000000	767.24115600000005	42.51600100000000	0.08329400000000	0.00000000000000	0.08237100000000	-11.23546800000000	59.82207600000000	13.34031800000000	0.29665900000000	0.00000000000000	-0.07139400000000	0.00000000000000	14.09957100000000	0.00000000000000	0.00000000000000	7.11412400000000	0.00000000000000	
8.59496700000000	-47.85551300000000	763.57403499999998	42.03487900000000	0.08286700000000	0.00000000000000	0.08228100000000	-11.56134400000000	66.48220100000000	14.15818500000000	0.30143200000000	0.00000000000000	-0.07182300000000	0.00000000000000	14.01767800000000	0.00000000000000	0.00000000000000	7.68242800000000	0.00000000000000	
8.59663700000000	-48.01733700000000	759.80936299999996	41.53406800000000	0.08246000000000	0.00000000000000	0.08218400000000	-11.67821200000000	73.01292200000000	14.80997800000000	0.30589500000000	0.00000000000000	-0.07222100000000	0.00000000000000	13.93685500000000	0.00000000000000	0.00000000000000	8.17741000000000	0.00000000000000	
8.59829900000000	-48.19057300000000	755.94707200000005	41.01404900000000	0.08207300000000	0.00000000000000	0.08208100000000	-11.59108300000000	79.39821999999999	15.29652600000000	0.31007600000000	0.00000000000000	-0.07259300000000	0.00000000000000	13.85716400000000	0.00000000000000	0.00000000000000	8.59656600000000	0.00000000000000	
8.59997000000000	-48.37557500000000	751.98699399999998	40.47534000000000	0.08170700000000	0.00000000000000	0.08197000000000	-11.31239100000000	85.64384099999999	15.62586400000000	0.31400100000000	0.00000000000000	-0.07294200000000	0.00000000000000	13.77865600000000	0.00000000000000	0.00000000000000	8.94134400000000	0.00000000000000	
8.60163200000000	-48.57263500000000	747.92886199999998	39.91849800000000	0.08136100000000	0.00000000000000	0.08185300000000	-10.86012000000000	91.77355000000000	15.81159700000000	0.31769000000000	0.00000000000000	-0.07327300000000	0.00000000000000	13.70136600000000	0.00000000000000	0.00000000000000	9.21642600000000	0.00000000000000	
8.60330200000000	-48.78197300000000	743.77230899999995	39.34411200000000	0.08103500000000	0.00000000000000	0.08172900000000	-10.25579700000000	97.82455500000000	15.87108200000000	0.32116200000000	0.00000000000000	-0.07358700000000	0.00000000000000	13.62531600000000	0.00000000000000	0.00000000000000	9.42885300000000	0.00000000000000	
8.60496600000000	-49.00374000000000	739.51686700000005	38.75280600000000	0.08072900000000	0.00000000000000	0.08160000000000	-9.52254100000000	103.84261400000000	15.82362700000000	0.32443100000000	0.00000000000000	-0.07388700000000	0.00000000000000	13.55051500000000	0.00000000000000	0.00000000000000	9.58711400000000	0.00000000000000	
8.60663400000000	-49.23800800000000	735.16197099999999	38.14523500000000	0.08044200000000	0.00000000000000	0.08146300000000	-8.68331800000000	109.87728000000000	15.68883200000000	0.32751100000000	0.00000000000000	-0.07417400000000	0.00000000000000	13.47695600000000	0.00000000000000	0.00000000000000	9.70026700000000	0.00000000000000	
8.60830000000000	-49.48477300000000	730.70695799999999	37.52208500000000	0.08017500000000	0.00000000000000	0.08132100000000	-7.75950100000000	115.97763500000001	15.48519100000000	0.33041200000000	0.00000000000000	-0.07445100000000	0.00000000000000	13.40461900000000	0.00000000000000	0.00000000000000	9.77716300000000	0.00000000000000	
8.60996900000000	-49.74394700000000	726.15107200000000	36.88406800000000	0.07992600000000	0.00000000000000	0.08117200000000	-6.76980000000000	122.18877600000000	15.22902200000000	0.33314600000000	0.00000000000000	-0.07471800000000	0.00000000000000	13.33347100000000	0.00000000000000	0.00000000000000	9.82582000000000	0.00000000000000	
8.61163600000000	-50.01535700000000	721.49346500000001	36.23192400000000	0.07969500000000	0.00000000000000	0.08101800000000	-5.72958000000000	128.54917300000000	14.93373700000000	0.33572100000000	0.00000000000000	-0.07497700000000	0.00000000000000	13.26346500000000	0.00000000000000	0.00000000000000	9.85296900000000	0.00000000000000	
8.61330400000000	-50.29874100000000	716.73320500000000	35.56641800000000	0.07948200000000	0.00000000000000	0.08085800000000	-4.65054300000000	135.08896200000001	14.60947000000000	0.33814400000000	0.00000000000000	-0.07522900000000	0.00000000000000	13.19453900000000	0.00000000000000	0.00000000000000	9.86377900000000	0.00000000000000	
8.61496900000000	-50.59374900000000	711.86927900000001	34.88833700000000	0.07928600000000	0.00000000000000	0.08069300000000	-3.54074600000000	141.82913300000001	14.26300200000000	0.34042200000000	0.00000000000000	-0.07547500000000	0.00000000000000	13.12662000000000	0.00000000000000	0.00000000000000	9.86175600000000	0.00000000000000	
8.61663200000000	-50.89993700000000	706.90060200000005	34.19848600000000	0.07910500000000	0.00000000000000	0.08052200000000	-2.40488200000000	148.78150199999999	13.89795400000000	0.34256100000000	0.00000000000000	-0.07571500000000	0.00000000000000	13.05962300000000	0.00000000000000	0.00000000000000	9.84877800000000	0.00000000000000	
8.61830500000000	-51.21676800000000	701.82602199999997	33.49769200000000	0.07894000000000	0.00000000000000	0.08034600000000	-1.24475800000000	155.94932900000001	13.51518300000000	0.34456800000000	0.00000000000000	-0.07595000000000	0.00000000000000	12.99344800000000	0.00000000000000	0.00000000000000	9.82526200000000	0.00000000000000	
8.61997000000000	-51.54361000000000	696.64432999999997	32.78679600000000	0.07878800000000	0.00000000000000	0.08016500000000	-0.05990500000000	163.32843099999999	13.11329900000000	0.34644700000000	0.00000000000000	-0.07618100000000	0.00000000000000	12.92798600000000	0.00000000000000	0.00000000000000	9.79040700000000	0.00000000000000	
8.62163500000000	-51.87973300000000	691.35427200000004	32.06665400000000	0.07865000000000	0.00000000000000	0.07998000000000	1.15176500000000	170.90858499999999	12.68926700000000	0.34820200000000	0.00000000000000	-0.07640700000000	0.00000000000000	12.86311500000000	0.00000000000000	0.00000000000000	9.74248800000000	0.00000000000000	
8.62329800000000	-52.22431200000000	685.95455500000003	31.33813400000000	0.07852300000000	0.00000000000000	0.07979000000000	2.39329500000000	178.67509799999999	12.23900500000000	0.34983800000000	0.00000000000000	-0.07663000000000	0.00000000000000	12.79870600000000	0.00000000000000	0.00000000000000	9.67917500000000	0.00000000000000	
8.62496500000000	-52.57642500000000	680.44386799999995	30.60211400000000	0.07840700000000	0.00000000000000	0.07959600000000	3.66807900000000	186.61036700000000	11.75796300000000	0.35135800000000	0.00000000000000	-0.07685000000000	0.00000000000000	12.73461500000000	0.00000000000000	0.00000000000000	9.59783500000000	0.00000000000000	
8.62663500000000	-52.93505500000000	674.82088699999997	29.85947900000000	0.07830100000000	0.00000000000000	0.07939900000000	4.97934000000000	194.69533799999999	11.24162200000000	0.35276600000000	0.00000000000000	-0.07706700000000	0.00000000000000	12.67069500000000	0.00000000000000	0.00000000000000	9.49580800000000	0.00000000000000	
